<?xml version="1.0" encoding="UTF-8"?>
<svg version="1.1" xmlns="http://www.w3.org/2000/svg" width="512" height="512">
<path d="M0 0 C0.72941768 -0.00581376 1.45883535 -0.01162753 2.21035659 -0.01761746 C4.66792859 -0.03227902 7.12451141 -0.01830428 9.58207703 -0.00457001 C11.35634785 -0.00917651 13.13061486 -0.01552773 14.90487385 -0.02347898 C19.79089398 -0.04022997 24.67660297 -0.03189982 29.56262445 -0.01953411 C34.82786867 -0.01050948 40.09305817 -0.02444046 45.35829163 -0.0354538 C55.67700313 -0.05327132 65.99559848 -0.04938465 76.3143146 -0.03780323 C84.69806293 -0.02878188 93.08177862 -0.02753928 101.4655304 -0.0318985 C102.65723888 -0.03251143 103.84894736 -0.03312436 105.07676822 -0.03375587 C107.49744917 -0.03503473 109.91813011 -0.03633158 112.33881104 -0.03764623 C135.05529629 -0.0490615 157.77171705 -0.03592348 180.48819172 -0.01444477 C199.99404713 0.00342706 219.49980733 0.00032321 239.00566101 -0.01811981 C261.63901304 -0.0395098 284.27230849 -0.04796278 306.90566921 -0.03567076 C309.31761105 -0.03439652 311.7295529 -0.03313903 314.14149475 -0.0318985 C315.32831937 -0.0312814 316.51514398 -0.03066429 317.73793298 -0.03002849 C326.11483795 -0.02656997 334.49170714 -0.03241473 342.86860657 -0.04181671 C353.07264017 -0.0530173 363.27655064 -0.05003757 373.48057008 -0.02869374 C378.69014786 -0.01815716 383.89952011 -0.01410578 389.10909653 -0.02729034 C393.87351281 -0.03916622 398.63753208 -0.03273148 403.40191209 -0.01138014 C405.12997746 -0.0068936 406.85807604 -0.009226 408.58612025 -0.01888329 C410.92690548 -0.03096644 413.26631308 -0.01865645 415.60702515 0 C416.90957591 0.00064941 418.21212667 0.00129882 419.55414867 0.00196791 C422.80351257 0.50336456 422.80351257 0.50336456 425.22154713 2.28815126 C427.67465947 5.72322445 427.36028622 9.27496059 427.3210907 13.33930206 C427.33160461 14.6765332 427.33160461 14.6765332 427.34233093 16.04077911 C427.35993291 18.98695799 427.34828032 21.93217595 427.33476257 24.87836456 C427.33745685 26.92572972 427.34133874 28.97309363 427.34635925 31.02045441 C427.35225729 35.31110569 427.34368137 39.60142387 427.32499695 43.89203644 C427.30220739 49.39367944 427.31532881 54.89454195 427.3392868 60.39615631 C427.35373642 64.62378579 427.3491426 68.85123002 427.33877563 73.07886505 C427.33610604 75.10747113 427.33938625 77.136094 427.34869385 79.16468048 C427.35884554 81.99938294 427.34337767 84.83281901 427.3210907 87.66742706 C427.32918762 88.50702972 427.33728455 89.34663239 427.34562683 90.21167755 C427.29645152 93.58536748 427.21434659 95.92807704 425.22154713 98.71857786 C421.90763323 101.16462622 419.70808563 101.00468447 415.60702515 101.00672913 C414.51289863 101.01544977 414.51289863 101.01544977 413.39666855 101.02434659 C410.93909656 101.03900815 408.48251374 101.0250334 406.02494812 101.01129913 C404.2506773 101.01590563 402.47641028 101.02225685 400.7021513 101.03020811 C395.81613117 101.0469591 390.93042217 101.03862894 386.04440069 101.02626324 C380.77915648 101.0172386 375.51396698 101.03116959 370.24873352 101.04218292 C359.93002201 101.06000044 349.61142667 101.05611378 339.29271054 101.04453236 C330.90896222 101.03551101 322.52524653 101.0342684 314.14149475 101.03862762 C312.94978627 101.03924056 311.75807779 101.03985349 310.53025693 101.04048499 C308.10957598 101.04176385 305.68889504 101.0430607 303.26821411 101.04437536 C280.55172886 101.05579063 257.8353081 101.0426526 235.11883342 101.02117389 C215.61297802 101.00330207 196.10721782 101.00640591 176.60136414 101.02484894 C153.96801211 101.04623893 131.33471666 101.05469191 108.70135593 101.04239988 C106.2894141 101.04112564 103.87747225 101.03986816 101.4655304 101.03862762 C100.27870578 101.03801052 99.09188116 101.03739342 97.86909217 101.03675762 C89.4921872 101.0332991 81.11531801 101.03914386 72.73841858 101.04854584 C62.53438498 101.05974642 52.3304745 101.0567667 42.12645507 101.03542286 C36.91687728 101.02488629 31.70750504 101.0208349 26.49792862 101.03401947 C21.73351233 101.04589534 16.96949307 101.0394606 12.20511305 101.01810926 C10.47704768 101.01362273 8.74894911 101.01595512 7.0209049 101.02561241 C4.68011967 101.03769556 2.34071206 101.02538558 0 101.00672913 C-1.30255076 101.00607972 -2.60510153 101.00543031 -3.94712353 101.00476122 C-7.19648743 100.50336456 -7.19648743 100.50336456 -9.61452198 98.71857786 C-12.06763433 95.28350467 -11.75326107 91.73176853 -11.71406555 87.66742706 C-11.72107483 86.77593964 -11.72808411 85.88445221 -11.73530579 84.96595001 C-11.75290777 82.01977113 -11.74125518 79.07455317 -11.72773743 76.12836456 C-11.73043171 74.08099941 -11.73431359 72.03363549 -11.73933411 69.98627472 C-11.74523214 65.69562343 -11.73665622 61.40530526 -11.7179718 57.11469269 C-11.69518225 51.61304968 -11.70830367 46.11218718 -11.73226166 40.61057281 C-11.74671127 36.38294334 -11.74211745 32.15549911 -11.73175049 27.92786407 C-11.7290809 25.89925799 -11.73236111 23.87063513 -11.7416687 21.84204865 C-11.75182039 19.00734619 -11.73635252 16.17391012 -11.71406555 13.33930206 C-11.72216248 12.4996994 -11.7302594 11.66009674 -11.73860168 10.79505157 C-11.68942637 7.42136164 -11.60732145 5.07865209 -9.61452198 2.28815126 C-6.30060809 -0.15789709 -4.10106048 0.00204465 0 0 Z " fill="#FE4638" transform="translate(45.19648742675781,62.49663543701172)"/>
<path d="M0 0 C1.70117635 -0.01564648 1.70117635 -0.01564648 3.43671989 -0.03160906 C4.6830073 -0.02268617 5.9292947 -0.01376328 7.21334839 -0.00457001 C8.55039207 -0.00917798 9.8874307 -0.0155302 11.22445869 -0.02347898 C14.9019462 -0.04021012 18.57901964 -0.03190908 22.25650883 -0.01953411 C26.22113443 -0.01050128 30.18568773 -0.02444453 34.15029907 -0.0354538 C41.91829522 -0.05326258 49.68613698 -0.04938858 57.45413923 -0.03780323 C63.76599872 -0.02877844 70.07781487 -0.02754077 76.38967896 -0.0318985 C77.73595924 -0.0328179 77.73595924 -0.0328179 79.10943711 -0.03375587 C80.93259606 -0.03503474 82.755755 -0.03633159 84.57891393 -0.03764623 C101.68428431 -0.04905894 118.78956902 -0.03592751 135.89492536 -0.01444477 C150.57972256 0.00342684 165.26439331 0.00032293 179.94918823 -0.01811981 C196.99234793 -0.03951435 214.03543249 -0.04796024 231.07860374 -0.03567076 C232.8951454 -0.03439653 234.71168708 -0.03313905 236.52822876 -0.0318985 C237.42205769 -0.0312814 238.31588661 -0.03066429 239.23680127 -0.03002849 C245.54282438 -0.02657133 251.84879993 -0.0324118 258.15481567 -0.04181671 C265.83727572 -0.05302235 273.51957224 -0.05002699 281.20201349 -0.02869374 C285.1235444 -0.01816387 289.04480244 -0.01409417 292.96633148 -0.02729034 C296.55392594 -0.03918044 300.14099374 -0.03270851 303.72854018 -0.01138014 C305.64608986 -0.00477152 307.5636759 -0.01788049 309.48118782 -0.03160906 C310.61530539 -0.02117807 311.74942295 -0.01074708 312.91790771 0 C313.89845564 0.00064941 314.87900356 0.00129882 315.88926506 0.00196791 C319.18519477 0.6450684 320.37923074 1.92475518 322.45895386 4.50336456 C322.96231842 6.4367981 322.96231842 6.4367981 322.96688843 8.48810577 C322.98380737 9.66145729 322.98380737 9.66145729 323.00106812 10.85851288 C322.98892273 12.13194298 322.98892273 12.13194298 322.97653198 13.43109894 C322.9870459 14.78296043 322.9870459 14.78296043 322.99777222 16.16213226 C323.0153753 19.14077326 323.00372117 22.11846393 322.99020386 25.09711456 C322.9928981 27.16689995 322.99677996 29.2366841 323.00180054 31.30646515 C323.00769873 35.64419354 322.99912214 39.98159244 322.98043823 44.31928253 C322.95764869 49.88145676 322.97077003 55.44285898 322.99472809 61.00500488 C323.00917728 65.27895685 323.00458407 69.55272558 322.99421692 73.82668304 C322.99154721 75.87761781 322.99482794 77.92856917 323.00413513 79.97948456 C323.0142861 82.84531518 322.99881986 85.70989297 322.97653198 88.57563019 C322.98462891 89.42458359 322.99272583 90.27353699 323.00106812 91.14821625 C322.98978882 91.93045059 322.97850952 92.71268494 322.96688843 93.51862335 C322.96462627 94.53402065 322.96462627 94.53402065 322.96231842 95.56993103 C322.2116256 98.45335745 320.73492057 99.62484132 318.45895386 101.50336456 C315.88926506 102.00476122 315.88926506 102.00476122 312.91790771 102.00672913 C311.21673137 102.02237561 311.21673137 102.02237561 309.48118782 102.03833818 C308.23490042 102.0294153 306.98861301 102.02049241 305.70455933 102.01129913 C304.36751564 102.0159071 303.03047702 102.02225933 301.69344902 102.03020811 C298.01596152 102.04693924 294.33888808 102.0386382 290.66139889 102.02626324 C286.69677329 102.01723041 282.73221998 102.03117366 278.76760864 102.04218292 C270.9996125 102.0599917 263.23177074 102.0561177 255.46376848 102.04453236 C249.15190899 102.03550756 242.84009285 102.0342699 236.52822876 102.03862762 C235.18194847 102.03954702 235.18194847 102.03954702 233.80847061 102.04048499 C231.98531165 102.04176387 230.16215271 102.04306072 228.33899379 102.04437536 C211.2336234 102.05578807 194.12833869 102.04265664 177.02298236 102.02117389 C162.33818515 102.00330228 147.65351441 102.0064062 132.96871948 102.02484894 C115.92555978 102.04624347 98.88247522 102.05468937 81.83930397 102.04239988 C80.02276231 102.04112565 78.20622064 102.03986817 76.38967896 102.03862762 C75.49585003 102.03801052 74.6020211 102.03739342 73.68110645 102.03675762 C67.37508334 102.03330046 61.06910779 102.03914093 54.76309204 102.04854584 C47.080632 102.05975148 39.39833548 102.05675611 31.71589422 102.03542286 C27.79436331 102.02489299 23.87310527 102.0208233 19.95157623 102.03401947 C16.36398178 102.04590957 12.77691398 102.03943763 9.18936753 102.01810926 C7.27181785 102.01150064 5.35423182 102.02460962 3.43671989 102.03833818 C2.30260233 102.0279072 1.16848476 102.01747621 0 102.00672913 C-0.98054792 102.00607972 -1.96109585 102.00543031 -2.97135735 102.00476122 C-6.26728706 101.36166072 -7.46132303 100.08197394 -9.54104614 97.50336456 C-10.04441071 95.56993103 -10.04441071 95.56993103 -10.04898071 93.51862335 C-10.06026001 92.73638901 -10.07153931 91.95415466 -10.0831604 91.14821625 C-10.07506348 90.29926285 -10.06696655 89.45030945 -10.05862427 88.57563019 C-10.06563354 87.67438919 -10.07264282 86.77314819 -10.0798645 85.84459686 C-10.09746758 82.86595587 -10.08581346 79.8882652 -10.07229614 76.90961456 C-10.07499039 74.83982918 -10.07887224 72.77004503 -10.08389282 70.70026398 C-10.08979101 66.36253559 -10.08121443 62.02513669 -10.06253052 57.68744659 C-10.03974098 52.12527237 -10.05286231 46.56387014 -10.07682037 41.00172424 C-10.09126957 36.72777227 -10.08667636 32.45400355 -10.0763092 28.18004608 C-10.0736395 26.12911132 -10.07692023 24.07815995 -10.08622742 22.02724457 C-10.09637839 19.16141395 -10.08091214 16.29683616 -10.05862427 13.43109894 C-10.06672119 12.58214554 -10.07481812 11.73319214 -10.0831604 10.85851288 C-10.0718811 10.07627853 -10.06060181 9.29404419 -10.04898071 8.48810577 C-10.04747261 7.81117424 -10.04596451 7.13424271 -10.04441071 6.4367981 C-8.69079789 1.23754372 -4.89913574 0.00324466 0 0 Z " fill="#FD4638" transform="translate(151.54104614257813,205.49663543701172)"/>
<path d="M0 0 C0.78463749 -0.00623996 1.56927498 -0.01247993 2.37768936 -0.01890898 C5.00958463 -0.03487699 7.64055863 -0.02222024 10.27246094 -0.00964355 C12.15816794 -0.01506299 14.04387071 -0.02218465 15.92956543 -0.03088379 C21.05350598 -0.04914126 26.17712489 -0.04203958 31.30107117 -0.02936745 C36.65905637 -0.01925235 42.01701373 -0.02862898 47.375 -0.03491211 C56.37342278 -0.04219286 65.37171432 -0.03258957 74.37011719 -0.0135498 C84.77894229 0.00821971 95.18745401 0.00116865 105.59627151 -0.02085543 C114.52715363 -0.03899722 123.45794132 -0.04157371 132.38883591 -0.03110075 C137.72546273 -0.02485912 143.06194217 -0.02404861 148.39855957 -0.0372467 C153.41535641 -0.0487868 158.43174855 -0.04081311 163.44850159 -0.01766968 C165.29158353 -0.01237274 167.13469943 -0.01391314 168.97776794 -0.02272034 C171.49019841 -0.03362079 174.00132493 -0.01997986 176.51367188 0 C177.2463541 -0.00892289 177.97903633 -0.01784577 178.73392105 -0.02703905 C182.09321302 0.02492632 183.96241986 0.29361535 186.70903778 2.2930069 C189.11604246 5.73747493 188.81347471 9.29351655 188.77441406 13.34387207 C188.78142334 14.2353595 188.78843262 15.12684692 188.7956543 16.04534912 C188.81325628 18.991528 188.80160369 21.93674596 188.78808594 24.88293457 C188.79078022 26.93029973 188.7946621 28.97766364 188.79968262 31.02502441 C188.80558066 35.3156757 188.79700473 39.60599388 188.77832031 43.89660645 C188.75553076 49.39824945 188.76865218 54.89911196 188.79261017 60.40072632 C188.80705978 64.62835579 188.80246596 68.85580002 188.792099 73.08343506 C188.78942941 75.11204114 188.79270962 77.140664 188.80201721 79.16925049 C188.8121689 82.00395295 188.79670103 84.83738902 188.77441406 87.67199707 C188.78251099 88.51159973 188.79060791 89.35120239 188.7989502 90.21624756 C188.75008428 93.56871122 188.65973547 95.93137792 186.70903778 98.72286224 C183.3791387 101.14685141 180.47906547 101.06416123 176.51367188 101.01586914 C175.72903439 101.0221091 174.9443969 101.02834907 174.13598251 101.03477812 C171.50408724 101.05074613 168.87311325 101.03808938 166.24121094 101.0255127 C164.35550394 101.03093213 162.46980117 101.03805379 160.58410645 101.04675293 C155.46016589 101.0650104 150.33654699 101.05790872 145.21260071 101.04523659 C139.8546155 101.03512149 134.49665814 101.04449812 129.13867188 101.05078125 C120.14024909 101.058062 111.14195755 101.04845871 102.14355469 101.02941895 C91.73472959 101.00764943 81.32621787 101.01470049 70.91740036 101.03672457 C61.98651824 101.05486636 53.05573056 101.05744285 44.12483597 101.04696989 C38.78820915 101.04072826 33.4517297 101.03991775 28.1151123 101.05311584 C23.09831546 101.06465594 18.08192333 101.05668225 13.06517029 101.03353882 C11.22208834 101.02824188 9.37897244 101.02978228 7.53590393 101.03858948 C5.02347346 101.04948993 2.51234694 101.03584901 0 101.01586914 C-0.73268223 101.02479203 -1.46536446 101.03371491 -2.22024918 101.04290819 C-5.57954114 100.99094282 -7.44874798 100.7222538 -10.19536591 98.72286224 C-12.60237059 95.27839421 -12.29980283 91.72235259 -12.26074219 87.67199707 C-12.26775146 86.78050964 -12.27476074 85.88902222 -12.28198242 84.97052002 C-12.2995844 82.02434114 -12.28793181 79.07912318 -12.27441406 76.13293457 C-12.27710834 74.08556941 -12.28099023 72.0382055 -12.28601074 69.99084473 C-12.29190878 65.70019344 -12.28333285 61.40987526 -12.26464844 57.1192627 C-12.24185888 51.61761969 -12.2549803 46.11675719 -12.27893829 40.61514282 C-12.29338791 36.38751335 -12.28879409 32.16006912 -12.27842712 27.93243408 C-12.27575753 25.903828 -12.27903774 23.87520514 -12.28834534 21.84661865 C-12.29849703 19.01191619 -12.28302916 16.17848012 -12.26074219 13.34387207 C-12.26883911 12.50426941 -12.27693604 11.66466675 -12.28527832 10.79962158 C-12.2364124 7.44715792 -12.14606359 5.08449122 -10.19536591 2.2930069 C-6.86546683 -0.13098227 -3.9653936 -0.04829209 0 0 Z " fill="#FD4638" transform="translate(285.7431640625,351.4920654296875)"/>
</svg>
